M48
;Layer_Color=9474304
;FILE_FORMAT=2:4
INCH
;TYPE=PLATED
T1F00S00C0.0138
T2F00S00C0.0394
T3F00S00C0.1083
%
T01
X009510Y013130
X009898Y013090
X010090Y013490
X009685Y013480
X009510Y013870
X009880
X010270Y013860
X010080Y014260
X009685Y014275
X009870Y014640
X009510Y014650
X010260Y014640
X013940Y014590
X014460Y014580
X014905
X015460Y014600
X015260Y014210
X014685Y014200
X014200Y014210
X014450Y013800
X013930Y013790
X014210Y013460
X014980Y013810
X015520Y013790
X015740Y016550
X015670Y019510
X015681Y019890
X016670
X016681Y019490
X017680Y019460
X017700Y019880
X018700Y019860
X018685Y019490
X019670Y019480
Y019880
X020680Y019890
X020685Y019480
X021700
Y019890
X022680
X022681Y019510
X023685Y019480
X023710Y019870
X023685Y021940
X023680Y022340
X022685
Y021950
X021690Y021930
X021685Y022340
X020680Y022350
X020700Y021940
X019690Y021920
X019681Y022320
X018670Y022310
X018681Y021920
X017685Y021930
X017681Y022330
X016680
Y021930
X015670
Y022320
X014680Y022330
X014670Y021940
X013680Y021908
Y022310
X012670Y022330
X012681Y021930
X011670Y021940
Y022320
X010690Y022330
X010680Y021940
X009681Y021930
Y022330
X008690Y022350
Y022000
X007690Y021960
X007710Y022330
X006685Y022300
X006671Y021940
X005620Y021920
X005190Y021940
X004820Y021930
X004640Y022290
X005030
X005400
X005830
X005810Y021520
X005440
X005050Y021540
X004630Y021550
X004820Y021160
X005230Y021164
X005620Y021160
X005440Y020690
X005810
X005050Y020700
X004640Y020690
X004680Y019906
X004670Y019500
X007680Y019550
X007685Y019920
X008681Y019870
Y019520
X009681Y019530
X009685Y019870
X010685Y019900
X010680Y019510
X011670Y019530
X011681Y019920
X012680Y019904
Y019510
X013670
X013681Y019890
X014685Y019904
X014681Y019510
X014880Y016220
T02
X009720Y009790
Y010790
X010720
X011720
Y009790
X010720
T03
X002764Y001672
X025599
Y020963
X002764
M30
