G04*
G04 #@! TF.GenerationSoftware,Altium Limited,Altium Designer,18.0.12 (696)*
G04*
G04 Layer_Color=65535*
%FSAX25Y25*%
%MOIN*%
G70*
G01*
G75*
%ADD10C,0.00984*%
%ADD11C,0.00787*%
%ADD12C,0.00394*%
%ADD13C,0.00591*%
%ADD14C,0.00600*%
%ADD15C,0.01000*%
G36*
X0051504Y0150794D02*
X0052685Y0151089D01*
Y0150498D01*
X0051504Y0149317D01*
X0050717D01*
X0051504Y0150794D01*
D02*
G37*
G36*
X0119100Y0142551D02*
X0118100D01*
Y0144051D01*
X0119100D01*
Y0142551D01*
D02*
G37*
G36*
X0148000Y0123100D02*
X0149500D01*
Y0122100D01*
X0148000D01*
Y0123100D01*
D02*
G37*
G36*
X0172100Y0161448D02*
X0173100D01*
Y0162948D01*
X0172100D01*
Y0161448D01*
D02*
G37*
G36*
X0135401Y0176100D02*
X0136901D01*
Y0177100D01*
X0135401D01*
Y0176100D01*
D02*
G37*
D10*
X0046091Y0152073D02*
G03*
X0046091Y0152073I-0000492J0000000D01*
G01*
D11*
X0050913Y0149317D02*
G03*
X0052685Y0151089I0000000J0001772D01*
G01*
X0065284Y0124711D02*
Y0151089D01*
X0050717Y0124711D02*
X0065284D01*
X0050717Y0149317D02*
X0050913D01*
X0050717Y0124711D02*
Y0150203D01*
X0051602Y0151089D01*
X0065284D01*
X0170600Y0125320D02*
X0167976Y0127944D01*
X0170600D02*
X0167976Y0125320D01*
X0170600Y0126632D02*
X0167976D01*
X0169288Y0127944D02*
Y0125320D01*
D12*
X0092200Y0100400D02*
G03*
X0092200Y0105400I0000000J0002500D01*
G01*
X0041853Y0206639D02*
G03*
X0041853Y0211639I0000000J0002500D01*
G01*
X0092200Y0112172D02*
X0122200D01*
Y0093372D02*
Y0112172D01*
X0092200Y0093372D02*
X0122200D01*
X0092200D02*
Y0105400D01*
Y0100400D02*
Y0112172D01*
X0239491Y0199001D02*
X0241833D01*
X0239516Y0219178D02*
X0241859D01*
X0041853Y0199040D02*
X0044195D01*
X0041853Y0219079D02*
X0044195D01*
X0041853Y0199040D02*
Y0206639D01*
X0241833Y0199001D02*
X0241859Y0219178D01*
X0041853Y0211639D02*
Y0219079D01*
X0141813Y0196934D02*
Y0221343D01*
X0136813D02*
X0146813D01*
X0136813Y0196934D02*
X0146813D01*
D13*
X0139800Y0179671D02*
Y0188529D01*
X0149150Y0179671D02*
Y0180655D01*
X0130450Y0179671D02*
X0149150D01*
X0130450D02*
Y0180655D01*
Y0187545D02*
Y0188529D01*
X0149150D01*
Y0187545D02*
Y0188529D01*
X0144400Y0106271D02*
Y0115129D01*
X0153750Y0106271D02*
Y0107255D01*
X0135050Y0106271D02*
X0153750D01*
X0135050D02*
Y0107255D01*
Y0114145D02*
Y0115129D01*
X0153750D01*
Y0114145D02*
Y0115129D01*
X0202550Y0165055D02*
X0203731D01*
Y0146945D02*
Y0165055D01*
X0202550Y0146945D02*
X0203731D01*
X0195069D02*
X0196250D01*
X0195069D02*
Y0165055D01*
X0196250D01*
X0195069Y0156000D02*
X0203731D01*
X0210669Y0146845D02*
X0211850D01*
X0210669D02*
Y0164955D01*
X0211850D01*
X0218150D02*
X0219331D01*
Y0146845D02*
Y0164955D01*
X0218150Y0146845D02*
X0219331D01*
X0210669Y0155900D02*
X0219331D01*
X0078069Y0093645D02*
X0079250D01*
X0078069D02*
Y0111755D01*
X0079250D01*
X0085550D02*
X0086731D01*
Y0093645D02*
Y0111755D01*
X0085550Y0093645D02*
X0086731D01*
X0078069Y0102700D02*
X0086731D01*
X0178471Y0155800D02*
X0187329D01*
X0186345Y0165150D02*
X0187329D01*
Y0146450D02*
Y0165150D01*
X0186345Y0146450D02*
X0187329D01*
X0178471D02*
X0179455D01*
X0178471D02*
Y0165150D01*
X0179455D01*
X0027771Y0142500D02*
X0036629D01*
X0027771Y0133150D02*
X0028755D01*
X0027771D02*
Y0151850D01*
X0028755D01*
X0035645D02*
X0036629D01*
Y0133150D02*
Y0151850D01*
X0035645Y0133150D02*
X0036629D01*
X0079571Y0133500D02*
X0088429D01*
X0079571Y0124150D02*
X0080555D01*
X0079571D02*
Y0142850D01*
X0080555D01*
X0087445D02*
X0088429D01*
Y0124150D02*
Y0142850D01*
X0087445Y0124150D02*
X0088429D01*
D14*
X0163658Y0129200D02*
X0166000D01*
X0125200D02*
Y0131542D01*
X0163658Y0170000D02*
X0166000D01*
X0125200Y0167658D02*
Y0170000D01*
Y0129200D02*
X0127542D01*
X0166000D02*
Y0131542D01*
Y0167658D02*
Y0170000D01*
X0125200D02*
X0127542D01*
D15*
X0142286Y0209139D02*
X0141630D01*
Y0209794D01*
X0142286D01*
Y0209139D01*
X0078750Y0115050D02*
Y0121048D01*
X0081749D01*
X0082749Y0120048D01*
Y0118049D01*
X0081749Y0117049D01*
X0078750D01*
X0080749D02*
X0082749Y0115050D01*
X0084748Y0120048D02*
X0085748Y0121048D01*
X0087747D01*
X0088747Y0120048D01*
Y0119049D01*
X0087747Y0118049D01*
X0086747D01*
X0087747D01*
X0088747Y0117049D01*
Y0116050D01*
X0087747Y0115050D01*
X0085748D01*
X0084748Y0116050D01*
X0210400Y0166500D02*
Y0172498D01*
X0213399D01*
X0214399Y0171498D01*
Y0169499D01*
X0213399Y0168499D01*
X0210400D01*
X0212399D02*
X0214399Y0166500D01*
X0220397D02*
X0216398D01*
X0220397Y0170499D01*
Y0171498D01*
X0219397Y0172498D01*
X0217398D01*
X0216398Y0171498D01*
X0195200Y0167088D02*
Y0173086D01*
X0198199D01*
X0199199Y0172087D01*
Y0170087D01*
X0198199Y0169088D01*
X0195200D01*
X0197199D02*
X0199199Y0167088D01*
X0201198D02*
X0203197D01*
X0202198D01*
Y0173086D01*
X0201198Y0172087D01*
X0093100Y0114800D02*
Y0120798D01*
X0096099D01*
X0097099Y0119798D01*
Y0117799D01*
X0096099Y0116799D01*
X0093100D01*
X0099098Y0120798D02*
Y0114800D01*
X0102097D01*
X0103097Y0115800D01*
Y0119798D01*
X0102097Y0120798D01*
X0099098D01*
X0105096D02*
X0107096D01*
X0106096D01*
Y0114800D01*
X0105096D01*
X0107096D01*
X0158000Y0177600D02*
Y0183598D01*
X0159999Y0181599D01*
X0161999Y0183598D01*
Y0177600D01*
X0167997Y0182598D02*
X0166997Y0183598D01*
X0164998D01*
X0163998Y0182598D01*
Y0178600D01*
X0164998Y0177600D01*
X0166997D01*
X0167997Y0178600D01*
X0169996Y0183598D02*
Y0178600D01*
X0170996Y0177600D01*
X0172995D01*
X0173995Y0178600D01*
Y0183598D01*
X0052300Y0159398D02*
Y0153400D01*
X0056299D01*
X0058298Y0159398D02*
Y0153400D01*
X0061297D01*
X0062297Y0154400D01*
Y0158398D01*
X0061297Y0159398D01*
X0058298D01*
X0067295D02*
X0065296D01*
X0064296Y0158398D01*
Y0154400D01*
X0065296Y0153400D01*
X0067295D01*
X0068295Y0154400D01*
Y0158398D01*
X0067295Y0159398D01*
X0122199Y0186598D02*
X0121199Y0187598D01*
X0119200D01*
X0118200Y0186598D01*
Y0182600D01*
X0119200Y0181600D01*
X0121199D01*
X0122199Y0182600D01*
X0128197Y0187598D02*
X0124198D01*
Y0184599D01*
X0126197Y0185599D01*
X0127197D01*
X0128197Y0184599D01*
Y0182600D01*
X0127197Y0181600D01*
X0125198D01*
X0124198Y0182600D01*
X0140497Y0121198D02*
X0139497Y0122198D01*
X0137498D01*
X0136498Y0121198D01*
Y0117200D01*
X0137498Y0116200D01*
X0139497D01*
X0140497Y0117200D01*
X0142497Y0121198D02*
X0143496Y0122198D01*
X0145495D01*
X0146495Y0121198D01*
Y0120199D01*
X0145495Y0119199D01*
X0144496D01*
X0145495D01*
X0146495Y0118199D01*
Y0117200D01*
X0145495Y0116200D01*
X0143496D01*
X0142497Y0117200D01*
X0182371Y0171998D02*
X0181371Y0172998D01*
X0179372D01*
X0178372Y0171998D01*
Y0168000D01*
X0179372Y0167000D01*
X0181371D01*
X0182371Y0168000D01*
X0188369Y0167000D02*
X0184371D01*
X0188369Y0170999D01*
Y0171998D01*
X0187370Y0172998D01*
X0185370D01*
X0184371Y0171998D01*
X0134624Y0210180D02*
X0133968Y0210836D01*
X0132656D01*
X0132000Y0210180D01*
Y0207556D01*
X0132656Y0206900D01*
X0133968D01*
X0134624Y0207556D01*
Y0208868D01*
X0133312D01*
X0135936Y0206900D02*
Y0210836D01*
X0137904D01*
X0138560Y0210180D01*
Y0208868D01*
X0137904Y0208212D01*
X0135936D01*
X0139872Y0210836D02*
X0141183D01*
X0140527D01*
Y0206900D01*
X0139872D01*
X0141183D01*
X0145119Y0210836D02*
X0143807D01*
X0143151Y0210180D01*
Y0207556D01*
X0143807Y0206900D01*
X0145119D01*
X0145775Y0207556D01*
Y0210180D01*
X0145119Y0210836D01*
X0147087D02*
X0149711D01*
X0148399D01*
Y0206900D01*
X0031636Y0158920D02*
X0030652Y0159904D01*
X0028684D01*
X0027700Y0158920D01*
Y0154984D01*
X0028684Y0154000D01*
X0030652D01*
X0031636Y0154984D01*
X0036555Y0154000D02*
Y0159904D01*
X0033604Y0156952D01*
X0037539D01*
X0086336Y0150620D02*
X0085352Y0151604D01*
X0083384D01*
X0082400Y0150620D01*
Y0146684D01*
X0083384Y0145700D01*
X0085352D01*
X0086336Y0146684D01*
X0088304Y0145700D02*
X0090272D01*
X0089288D01*
Y0151604D01*
X0088304Y0150620D01*
M02*
