G04*
G04 #@! TF.GenerationSoftware,Altium Limited,Altium Designer,18.0.12 (696)*
G04*
G04 Layer_Color=16711935*
%FSAX25Y25*%
%MOIN*%
G70*
G01*
G75*
%ADD32O,0.04409X0.08661*%
%ADD33R,0.04409X0.08661*%
%ADD34C,0.05118*%
%ADD35R,0.05118X0.05118*%
%ADD36C,0.12205*%
D32*
X0056813Y0196934D02*
D03*
X0066813D02*
D03*
X0076813D02*
D03*
X0086813D02*
D03*
X0096813D02*
D03*
X0106813D02*
D03*
X0116813D02*
D03*
X0126813D02*
D03*
X0136813D02*
D03*
X0146813D02*
D03*
X0156813D02*
D03*
X0166813D02*
D03*
X0176813D02*
D03*
X0186813D02*
D03*
X0196813D02*
D03*
X0206813D02*
D03*
X0216813D02*
D03*
X0226813D02*
D03*
X0236813D02*
D03*
X0046813Y0221343D02*
D03*
X0056813D02*
D03*
X0066813D02*
D03*
X0076813D02*
D03*
X0086813D02*
D03*
X0096813D02*
D03*
X0106813D02*
D03*
X0116813D02*
D03*
X0126813D02*
D03*
X0136813D02*
D03*
X0146813D02*
D03*
X0156813D02*
D03*
X0166813D02*
D03*
X0176813D02*
D03*
X0186813D02*
D03*
X0196813D02*
D03*
X0206813D02*
D03*
X0216813D02*
D03*
X0226813D02*
D03*
X0236813D02*
D03*
D33*
X0046813Y0196934D02*
D03*
D34*
X0117200Y0107900D02*
D03*
X0107200D02*
D03*
X0097200D02*
D03*
X0117200Y0097900D02*
D03*
X0107200D02*
D03*
D35*
X0097200D02*
D03*
D36*
X0255987Y0209631D02*
D03*
X0027640Y0016717D02*
D03*
X0255987D02*
D03*
X0027640Y0209631D02*
D03*
M02*
