G04*
G04 #@! TF.GenerationSoftware,Altium Limited,Altium Designer,18.0.12 (696)*
G04*
G04 Layer_Color=8388736*
%FSAX25Y25*%
%MOIN*%
G70*
G01*
G75*
%ADD12C,0.00394*%
%ADD58C,0.00394*%
D12*
X0019568Y0016905D02*
G03*
X0027593Y0008833I0008072J0000000D01*
G01*
X0019605Y0221665D02*
G03*
X0019601Y0221629I0000195J-0000036D01*
G01*
X0019602Y0221700D02*
G03*
X0019605Y0221665I0000198J0000000D01*
G01*
X0027674Y0229772D02*
G03*
X0019602Y0221700I0000000J-0008072D01*
G01*
X0256036Y0229766D02*
G03*
X0255987Y0229772I-0000049J-0000192D01*
G01*
X0256060Y0229768D02*
G03*
X0256036Y0229766I0000000J-0000198D01*
G01*
X0264132Y0221695D02*
G03*
X0256060Y0229768I-0008072J0000000D01*
G01*
X0264074Y0221555D02*
G03*
X0264132Y0221695I-0000140J0000140D01*
G01*
X0263979Y0017689D02*
G03*
X0263981Y0017712I-0000197J0000023D01*
G01*
X0254999Y0008832D02*
G03*
X0263979Y0017689I0000000J0008981D01*
G01*
X0027593Y0008833D02*
G03*
X0027600Y0008832I0000007J0000198D01*
G01*
X0255928Y0229772D02*
X0255933Y0229768D01*
X0027760Y0229772D02*
X0255928D01*
X0019568Y0017000D02*
Y0221563D01*
X0256036Y0229766D02*
X0256036D01*
X0264014Y0221495D02*
X0264074Y0221555D01*
X0263981Y0017712D02*
X0264014Y0221495D01*
X0263979Y0017689D02*
X0263979D01*
X0027600Y0008832D02*
X0254999D01*
D58*
X0019568Y0016905D02*
D03*
M02*
