G04*
G04 #@! TF.GenerationSoftware,Altium Limited,Altium Designer,18.0.12 (696)*
G04*
G04 Layer_Color=32896*
%FSAX25Y25*%
%MOIN*%
G70*
G01*
G75*
%ADD12C,0.00394*%
%ADD15C,0.01000*%
D12*
X0041813Y0206639D02*
G03*
X0041813Y0211639I0000000J0002500D01*
G01*
Y0219079D01*
Y0199040D02*
Y0206639D01*
X0241794Y0199001D02*
X0241820Y0219178D01*
X0041813Y0199040D02*
X0044156D01*
X0041813Y0219079D02*
X0044156D01*
X0239451Y0199001D02*
X0241794D01*
X0239477Y0219178D02*
X0241820D01*
D15*
X0151176Y0206420D02*
X0151832Y0205764D01*
X0153144D01*
X0153800Y0206420D01*
Y0209044D01*
X0153144Y0209700D01*
X0151832D01*
X0151176Y0209044D01*
Y0207732D01*
X0152488D01*
X0149864Y0209700D02*
Y0205764D01*
X0147896D01*
X0147240Y0206420D01*
Y0207732D01*
X0147896Y0208388D01*
X0149864D01*
X0145929Y0205764D02*
X0144617D01*
X0145273D01*
Y0209700D01*
X0145929D01*
X0144617D01*
X0140681Y0205764D02*
X0141993D01*
X0142649Y0206420D01*
Y0209044D01*
X0141993Y0209700D01*
X0140681D01*
X0140025Y0209044D01*
Y0206420D01*
X0140681Y0205764D01*
X0136745Y0209700D02*
Y0205764D01*
X0138713Y0207732D01*
X0136089D01*
X0134777Y0206420D02*
X0134121Y0205764D01*
X0132809D01*
X0132153Y0206420D01*
Y0209044D01*
X0132809Y0209700D01*
X0134121D01*
X0134777Y0209044D01*
Y0206420D01*
X0128218D02*
X0128874Y0205764D01*
X0130186D01*
X0130842Y0206420D01*
Y0207076D01*
X0130186Y0207732D01*
X0128874D01*
X0128218Y0208388D01*
Y0209044D01*
X0128874Y0209700D01*
X0130186D01*
X0130842Y0209044D01*
M02*
