G04*
G04 #@! TF.GenerationSoftware,Altium Limited,Altium Designer,18.0.12 (696)*
G04*
G04 Layer_Color=255*
%FSAX25Y25*%
%MOIN*%
G70*
G01*
G75*
%ADD44O,0.04016X0.08268*%
%ADD45R,0.04016X0.08268*%
%ADD53C,0.04724*%
%ADD54R,0.04724X0.04724*%
%ADD55C,0.11811*%
D44*
X0056813Y0196934D02*
D03*
X0066813D02*
D03*
X0076813D02*
D03*
X0086813D02*
D03*
X0096813D02*
D03*
X0106813D02*
D03*
X0116813D02*
D03*
X0126813D02*
D03*
X0136813D02*
D03*
X0146813D02*
D03*
X0156813D02*
D03*
X0166813D02*
D03*
X0176813D02*
D03*
X0186813D02*
D03*
X0196813D02*
D03*
X0206813D02*
D03*
X0216813D02*
D03*
X0226813D02*
D03*
X0236813D02*
D03*
X0046813Y0221343D02*
D03*
X0056813D02*
D03*
X0066813D02*
D03*
X0076813D02*
D03*
X0086813D02*
D03*
X0096813D02*
D03*
X0106813D02*
D03*
X0116813D02*
D03*
X0126813D02*
D03*
X0136813D02*
D03*
X0146813D02*
D03*
X0156813D02*
D03*
X0166813D02*
D03*
X0176813D02*
D03*
X0186813D02*
D03*
X0196813D02*
D03*
X0206813D02*
D03*
X0216813D02*
D03*
X0226813D02*
D03*
X0236813D02*
D03*
D45*
X0046813Y0196934D02*
D03*
D53*
X0117200Y0107900D02*
D03*
X0107200D02*
D03*
X0097200D02*
D03*
X0117200Y0097900D02*
D03*
X0107200D02*
D03*
D54*
X0097200D02*
D03*
D55*
X0255987Y0209631D02*
D03*
X0027640Y0016717D02*
D03*
X0255987D02*
D03*
X0027640Y0209631D02*
D03*
M02*
